<svg width="160" height="60" viewBox="0 0 160 60" fill="none" xmlns="http://www.w3.org/2000/svg">
<path d="M18.6599 41.0488L21.0312 48.3425C21.0987 48.5505 21.2196 48.737 21.3817 48.8836C21.5439 49.0303 21.7417 49.1318 21.9553 49.1781C22.169 49.2244 22.391 49.2138 22.5993 49.1475C22.8076 49.0812 22.9949 48.9614 23.1424 48.8L33.7149 37.2688" stroke="#FCFCFC" stroke-width="2" stroke-linecap="round" stroke-linejoin="round"/>
<path d="M47.3576 31.2963C47.3576 31.2963 46.0326 38.3176 38.1963 38.3176C30.3601 38.3176 25.4213 28.6488 19.5188 28.6488C12.5463 28.6488 10.7151 34.5013 10.7151 38.3176C10.7151 41.5751 12.4451 42.8988 14.7351 42.8988C17.0251 42.8988 21.3001 39.0301 23.1326 37.0451H33.2576" stroke="#FCFCFC" stroke-width="2" stroke-linecap="round" stroke-linejoin="round"/>
<path d="M19.5187 28.6487C19.5187 25.29 16.8213 22.6937 12.5975 22.6937C8.37375 22.6937 5.625 24.7812 5.625 30.6837C5.625 36.5862 10.7288 37.7562 10.7288 37.7562" stroke="#FCFCFC" stroke-width="2" stroke-linecap="round" stroke-linejoin="round"/>
<path d="M9.07129 23.3763C7.47754 19.1738 11.4263 15.06 17.5338 15.06C26.7963 15.06 27.635 30.0975 36.5163 30.0975C43.8963 30.0975 48.845 20.5263 45.4738 15.01C40.995 7.68005 33.5063 9.02755 30.35 12.03" stroke="#FCFCFC" stroke-width="2" stroke-linecap="round" stroke-linejoin="round"/>
<path d="M17.5337 15.06C19.2137 9.40997 27.6362 9.23247 30.9699 12.5662C34.3037 15.9 34.1249 20.6575 29.4474 25.8687M41.3037 28.6487C44.8887 32.9987 53.7012 32.3937 54.3374 23.7675C54.9737 15.1412 47.4212 15.28 45.9124 15.8575" stroke="#FCFCFC" stroke-width="2" stroke-linecap="round" stroke-linejoin="round"/>
<path d="M65.28 37V23H66.5L72.9 33.92H72.26L78.6 23H79.82V37H78.4V25.22H78.74L72.9 35.22H72.2L66.32 25.22H66.7V37H65.28ZM88.5416 37.1C87.4482 37.1 86.4882 36.8733 85.6616 36.42C84.8349 35.9533 84.1882 35.32 83.7216 34.52C83.2549 33.7067 83.0216 32.78 83.0216 31.74C83.0216 30.7 83.2416 29.78 83.6816 28.98C84.1349 28.18 84.7482 27.5533 85.5216 27.1C86.3082 26.6333 87.1882 26.4 88.1616 26.4C89.1482 26.4 90.0216 26.6267 90.7816 27.08C91.5549 27.52 92.1616 28.1467 92.6016 28.96C93.0416 29.76 93.2616 30.6867 93.2616 31.74C93.2616 31.8067 93.2549 31.88 93.2416 31.96C93.2416 32.0267 93.2416 32.1 93.2416 32.18H84.1016V31.12H92.4816L91.9216 31.54C91.9216 30.78 91.7549 30.1067 91.4216 29.52C91.1016 28.92 90.6616 28.4533 90.1016 28.12C89.5416 27.7867 88.8949 27.62 88.1616 27.62C87.4416 27.62 86.7949 27.7867 86.2216 28.12C85.6482 28.4533 85.2016 28.92 84.8816 29.52C84.5616 30.12 84.4016 30.8067 84.4016 31.58V31.8C84.4016 32.6 84.5749 33.3067 84.9216 33.92C85.2816 34.52 85.7749 34.9933 86.4016 35.34C87.0416 35.6733 87.7682 35.84 88.5816 35.84C89.2216 35.84 89.8149 35.7267 90.3616 35.5C90.9216 35.2733 91.4016 34.9267 91.8016 34.46L92.6016 35.38C92.1349 35.94 91.5482 36.3667 90.8416 36.66C90.1482 36.9533 89.3816 37.1 88.5416 37.1ZM100.512 37.1C99.4719 37.1 98.5385 36.8733 97.7119 36.42C96.8985 35.9533 96.2585 35.32 95.7919 34.52C95.3252 33.7067 95.0919 32.78 95.0919 31.74C95.0919 30.6867 95.3252 29.76 95.7919 28.96C96.2585 28.16 96.8985 27.5333 97.7119 27.08C98.5385 26.6267 99.4719 26.4 100.512 26.4C101.405 26.4 102.212 26.5733 102.932 26.92C103.652 27.2667 104.219 27.7867 104.632 28.48L103.572 29.2C103.212 28.6667 102.765 28.2733 102.232 28.02C101.699 27.7667 101.119 27.64 100.492 27.64C99.7452 27.64 99.0719 27.8133 98.4719 28.16C97.8719 28.4933 97.3985 28.9667 97.0519 29.58C96.7052 30.1933 96.5319 30.9133 96.5319 31.74C96.5319 32.5667 96.7052 33.2867 97.0519 33.9C97.3985 34.5133 97.8719 34.9933 98.4719 35.34C99.0719 35.6733 99.7452 35.84 100.492 35.84C101.119 35.84 101.699 35.7133 102.232 35.46C102.765 35.2067 103.212 34.82 103.572 34.3L104.632 35.02C104.219 35.7 103.652 36.22 102.932 36.58C102.212 36.9267 101.405 37.1 100.512 37.1ZM112.625 26.4C113.478 26.4 114.225 26.5667 114.865 26.9C115.518 27.22 116.025 27.7133 116.385 28.38C116.758 29.0467 116.945 29.8867 116.945 30.9V37H115.525V31.04C115.525 29.9333 115.245 29.1 114.685 28.54C114.138 27.9667 113.365 27.68 112.365 27.68C111.618 27.68 110.965 27.8333 110.405 28.14C109.858 28.4333 109.432 28.8667 109.125 29.44C108.832 30 108.685 30.68 108.685 31.48V37H107.265V22.16H108.685V29.38L108.405 28.84C108.738 28.08 109.272 27.4867 110.005 27.06C110.738 26.62 111.612 26.4 112.625 26.4ZM126.141 26.4C126.994 26.4 127.741 26.5667 128.381 26.9C129.034 27.22 129.541 27.7133 129.901 28.38C130.274 29.0467 130.461 29.8867 130.461 30.9V37H129.041V31.04C129.041 29.9333 128.761 29.1 128.201 28.54C127.654 27.9667 126.881 27.68 125.881 27.68C125.134 27.68 124.481 27.8333 123.921 28.14C123.374 28.4333 122.947 28.8667 122.641 29.44C122.347 30 122.201 30.68 122.201 31.48V37H120.781V22.16H122.201V29.38L121.921 28.84C122.254 28.08 122.787 27.4867 123.521 27.06C124.254 26.62 125.127 26.4 126.141 26.4ZM138.636 37.1C137.743 37.1 136.963 36.9333 136.296 36.6C135.63 36.2667 135.11 35.7667 134.736 35.1C134.376 34.4333 134.196 33.6 134.196 32.6V26.5H135.616V32.44C135.616 33.56 135.89 34.4067 136.436 34.98C136.996 35.54 137.776 35.82 138.776 35.82C139.51 35.82 140.143 35.6733 140.676 35.38C141.223 35.0733 141.636 34.6333 141.916 34.06C142.21 33.4867 142.356 32.8 142.356 32V26.5H143.776V37H142.416V34.12L142.636 34.64C142.303 35.4133 141.783 36.02 141.076 36.46C140.383 36.8867 139.57 37.1 138.636 37.1ZM153.154 37.1C152.234 37.1 151.407 36.8933 150.674 36.48C149.941 36.0533 149.361 35.44 148.934 34.64C148.507 33.84 148.294 32.8733 148.294 31.74C148.294 30.5933 148.507 29.6267 148.934 28.84C149.374 28.04 149.961 27.4333 150.694 27.02C151.427 26.6067 152.247 26.4 153.154 26.4C154.154 26.4 155.047 26.6267 155.834 27.08C156.634 27.52 157.261 28.14 157.714 28.94C158.167 29.74 158.394 30.6733 158.394 31.74C158.394 32.7933 158.167 33.7267 157.714 34.54C157.261 35.34 156.634 35.9667 155.834 36.42C155.047 36.8733 154.154 37.1 153.154 37.1ZM147.734 37V22.16H149.154V29.6L148.954 31.72L149.094 33.84V37H147.734ZM153.054 35.84C153.801 35.84 154.467 35.6733 155.054 35.34C155.641 34.9933 156.107 34.5133 156.454 33.9C156.801 33.2733 156.974 32.5533 156.974 31.74C156.974 30.9133 156.801 30.1933 156.454 29.58C156.107 28.9667 155.641 28.4933 155.054 28.16C154.467 27.8133 153.801 27.64 153.054 27.64C152.307 27.64 151.634 27.8133 151.034 28.16C150.447 28.4933 149.981 28.9667 149.634 29.58C149.301 30.1933 149.134 30.9133 149.134 31.74C149.134 32.5533 149.301 33.2733 149.634 33.9C149.981 34.5133 150.447 34.9933 151.034 35.34C151.634 35.6733 152.307 35.84 153.054 35.84Z" fill="white"/>
</svg>
